<svg width="48" height="48" viewBox="0 0 48 48" fill="none" xmlns="http://www.w3.org/2000/svg">
<path d="M23.9914 4.49561C21.1682 4.49561 17.8688 5.31762 15.1703 7.45486C12.4718 9.5921 10.499 13.1239 10.499 18.005C10.499 23.1695 13.7417 28.2036 16.8313 32.0643C19.921 35.9306 23.0106 38.6347 23.0106 38.6347C23.5775 39.1336 24.4222 39.1336 24.9891 38.6347C24.9891 38.6347 28.0788 35.9306 31.1684 32.0643C34.258 28.2036 37.5007 23.1695 37.5007 18.005C37.5007 13.1183 35.5279 9.5921 32.8294 7.45486C30.131 5.31762 26.8146 4.49561 23.9914 4.49561ZM23.9914 7.50021C26.2306 7.50021 28.9348 8.18617 30.9643 9.80185C33.0052 11.4119 34.5018 13.8893 34.5018 18.005C34.5018 21.8373 31.792 26.588 28.8327 30.1822C26.3213 33.2321 25.1535 34.3036 24.0027 35.4544C22.9256 34.3433 21.548 33.1187 19.167 30.1822C16.2304 26.5653 13.4979 21.8373 13.4979 18.005C13.4979 13.8893 14.9946 11.4119 17.0297 9.80185C19.0706 8.18617 21.7577 7.49454 23.9914 7.49454V7.50021ZM23.9914 10.5275C19.87 10.5275 16.4969 13.9119 16.4969 18.039C16.4969 22.1604 19.87 25.5335 23.9914 25.5335C28.1184 25.5335 31.5029 22.1604 31.5029 18.039C31.4954 16.0491 30.7016 14.1429 29.2946 12.7358C27.8875 11.3287 25.9812 10.535 23.9914 10.5275V10.5275ZM23.9914 13.5321C26.4971 13.5321 28.5039 15.5333 28.5039 18.039C28.5055 18.631 28.3896 19.2174 28.1631 19.7643C27.9366 20.3112 27.6039 20.8077 27.1842 21.2253C26.7646 21.6428 26.2664 21.973 25.7183 22.1967C25.1703 22.4205 24.5833 22.5334 23.9914 22.5289C23.4009 22.5319 22.8157 22.4178 22.2696 22.1933C21.7235 21.9687 21.2273 21.6381 20.8098 21.2205C20.3923 20.803 20.0617 20.3069 19.8371 19.7608C19.6125 19.2147 19.4985 18.6295 19.5015 18.039C19.4977 17.4475 19.6112 16.8612 19.8353 16.3138C20.0594 15.7664 20.3897 15.2688 20.8071 14.8498C21.2246 14.4308 21.7209 14.0986 22.2674 13.8724C22.814 13.6463 23.3999 13.5306 23.9914 13.5321ZM16.4628 34.8535C16.4305 34.8579 16.3984 34.8636 16.3665 34.8705C13.1124 35.2049 10.6464 35.6925 8.97967 36.4181C8.14632 36.7809 7.39233 37.1324 6.93881 38.1132C6.71031 38.6513 6.70015 39.2571 6.91046 39.8026C7.12022 40.3184 7.4717 40.6643 7.82885 40.9364C9.25746 42.0135 11.304 42.4387 14.0932 42.8525C16.8824 43.2664 20.3235 43.5045 23.9914 43.5045C27.6649 43.5045 31.1004 43.2664 33.8896 42.8525C36.6844 42.4387 38.7366 42.0135 40.1709 40.9364C40.5749 40.6543 40.8928 40.2658 41.0893 39.8139C41.2973 39.2637 41.2851 38.6546 41.0553 38.1132C40.6017 37.1268 39.8534 36.7809 39.0144 36.4125C37.3534 35.6925 34.8986 35.2049 31.6446 34.8705C29.7341 34.7117 29.2749 37.5066 31.3328 37.8581C33.9349 38.1245 36.1175 38.5497 37.376 38.9919C36.503 39.3094 35.2218 39.6211 33.4474 39.8819C30.8509 40.2674 27.5345 40.5055 23.9914 40.5055C20.4539 40.5055 17.1375 40.2674 14.541 39.8819C13.2025 39.7137 11.8831 39.4176 10.601 38.9976C12.5811 38.4212 14.6127 38.0395 16.6669 37.8581C18.6228 37.5633 18.3563 34.8705 16.4628 34.8535V34.8535Z" fill="#4D0043"/>
</svg>
