<svg width="40" height="38" viewBox="0 0 40 38" fill="none" xmlns="http://www.w3.org/2000/svg">
<path d="M20 18C21.1046 18 22 17.1046 22 16C22 14.8954 21.1046 14 20 14C18.8954 14 18 14.8954 18 16C18 17.1046 18.8954 18 20 18Z" fill="#4D0043"/>
<path d="M28 18C29.1046 18 30 17.1046 30 16C30 14.8954 29.1046 14 28 14C26.8954 14 26 14.8954 26 16C26 17.1046 26.8954 18 28 18Z" fill="#4D0043"/>
<path d="M12 18C13.1046 18 14 17.1046 14 16C14 14.8954 13.1046 14 12 14C10.8954 14 10 14.8954 10 16C10 17.1046 10.8954 18 12 18Z" fill="#4D0043"/>
<path d="M34 0H6C4.4087 0 2.88258 0.632141 1.75736 1.75736C0.632141 2.88258 0 4.4087 0 6V36C0.000610714 36.3544 0.0953776 36.7023 0.274601 37.008C0.453824 37.3137 0.711067 37.5663 1.02 37.74C1.31891 37.9094 1.65642 37.9989 2 38C2.35897 37.9999 2.71129 37.9032 3.02 37.72L12 32.28C12.3319 32.0824 12.714 31.9851 13.1 32H34C35.5913 32 37.1174 31.3679 38.2426 30.2426C39.3679 29.1174 40 27.5913 40 26V6C40 4.4087 39.3679 2.88258 38.2426 1.75736C37.1174 0.632141 35.5913 0 34 0ZM36 26C36 26.5304 35.7893 27.0391 35.4142 27.4142C35.0391 27.7893 34.5304 28 34 28H13.1C12.0076 27.9991 10.9358 28.2965 10 28.86L4 32.46V6C4 5.46957 4.21071 4.96086 4.58579 4.58579C4.96086 4.21071 5.46957 4 6 4H34C34.5304 4 35.0391 4.21071 35.4142 4.58579C35.7893 4.96086 36 5.46957 36 6V26Z" fill="#4D0043"/>
</svg>
