<svg width="40" height="40" viewBox="0 0 40 40" fill="none" xmlns="http://www.w3.org/2000/svg">
<path d="M22 12C23.5913 12 25.1174 12.6321 26.2426 13.7574C27.3679 14.8826 28 16.4087 28 18C28 18.5304 28.2107 19.0391 28.5858 19.4142C28.9609 19.7893 29.4696 20 30 20C30.5304 20 31.0391 19.7893 31.4142 19.4142C31.7893 19.0391 32 18.5304 32 18C32 15.3478 30.9464 12.8043 29.0711 10.9289C27.1957 9.05357 24.6522 8 22 8C21.4696 8 20.9609 8.21071 20.5858 8.58579C20.2107 8.96086 20 9.46957 20 10C20 10.5304 20.2107 11.0391 20.5858 11.4142C20.9609 11.7893 21.4696 12 22 12Z" fill="#4D0043"/>
<path d="M22 4C25.713 4 29.274 5.475 31.8995 8.1005C34.525 10.726 36 14.287 36 18C36 18.5304 36.2107 19.0391 36.5858 19.4142C36.9609 19.7893 37.4696 20 38 20C38.5304 20 39.0391 19.7893 39.4142 19.4142C39.7893 19.0391 40 18.5304 40 18C40 13.2261 38.1036 8.64773 34.7279 5.27208C31.3523 1.89642 26.7739 0 22 0C21.4696 0 20.9609 0.210714 20.5858 0.585786C20.2107 0.960859 20 1.46957 20 2C20 2.53043 20.2107 3.03914 20.5858 3.41421C20.9609 3.78929 21.4696 4 22 4V4ZM39.5 27.82C39.39 27.4989 39.2001 27.2111 38.9482 26.9837C38.6963 26.7563 38.3906 26.5967 38.06 26.52L26.06 23.78C25.7343 23.7061 25.3952 23.715 25.0738 23.8059C24.7524 23.8967 24.4589 24.0666 24.22 24.3C23.94 24.56 23.92 24.58 22.62 27.06C18.3064 25.0723 14.85 21.6017 12.88 17.28C15.42 16 15.44 16 15.7 15.7C15.9334 15.4611 16.1033 15.1676 16.1941 14.8462C16.285 14.5248 16.2939 14.1857 16.22 13.86L13.48 2C13.4033 1.66939 13.2437 1.36374 13.0163 1.11182C12.7889 0.859904 12.5011 0.670004 12.18 0.56C11.7129 0.393179 11.2306 0.272601 10.74 0.2C10.2345 0.0827904 9.71867 0.0157987 9.2 0C6.76001 0 4.41995 0.969283 2.69462 2.69462C0.969283 4.41995 0 6.76001 0 9.2C0.0105838 17.3654 3.25897 25.1934 9.0328 30.9672C14.8066 36.741 22.6346 39.9894 30.8 40C32.0082 40 33.2045 39.762 34.3207 39.2997C35.4369 38.8373 36.4511 38.1597 37.3054 37.3054C38.1597 36.4511 38.8373 35.4369 39.2997 34.3207C39.762 33.2045 40 32.0082 40 30.8C40.0006 30.2909 39.9605 29.7827 39.88 29.28C39.7959 28.7832 39.6688 28.2947 39.5 27.82V27.82ZM30.8 36C23.6938 35.9947 16.8802 33.1694 11.8554 28.1446C6.83056 23.1198 4.0053 16.3062 4 9.2C4.00527 7.8225 4.55482 6.50291 5.52886 5.52886C6.50291 4.55482 7.8225 4.00527 9.2 4H9.86L12 13.28L10.92 13.84C9.2 14.74 7.84 15.46 8.56 17.02C9.73245 20.3392 11.6295 23.3555 14.1135 25.8498C16.5974 28.3441 19.6058 30.2537 22.92 31.44C24.6 32.12 25.26 30.86 26.16 29.12L26.74 28.02L36 30.14V30.8C35.9947 32.1775 35.4452 33.4971 34.4711 34.4711C33.4971 35.4452 32.1775 35.9947 30.8 36V36Z" fill="#4D0043"/>
</svg>
