<svg width="36" height="50" viewBox="0 0 36 50" fill="none" xmlns="http://www.w3.org/2000/svg">
<path d="M35.5399 35.5659C35.5599 34.6459 35.2799 33.7659 34.7599 33.0159C34.9546 32.6265 35.7102 27.9831 33.2999 25.9759C33.2799 24.8859 32.5599 22.6759 30.5599 21.0759C29.0599 19.8759 26.4099 18.6759 22.1099 19.5459C22.98 16.5558 23.0799 12.6659 22.3899 7.94588C22.2099 6.72588 21.8899 5.13588 20.9899 3.77588C19.6999 1.80588 17.2599 0.615883 14.92 0.815883C12.9108 1.00068 11.6006 2.08148 11.38 4.65588C11.2094 6.84868 11.8542 8.93918 12.28 10.8859C13.1832 14.8502 13.5657 17.804 12.25 20.8359C11.42 20.4459 10.54 20.2359 9.61996 20.2359C4.56996 20.2359 0.459961 26.6559 0.459961 34.546C0.459961 42.4259 4.56996 48.846 9.61996 48.846C11.05 48.846 12.4 48.336 13.6 47.426C14.3254 47.8004 15.2912 48.1935 15.63 48.306C15.7324 48.306 19.8462 49.206 23.94 49.206C30.13 49.206 32.37 47.236 33.13 46.176C34.03 44.9161 34.09 43.396 33.31 42.016C32.87 41.246 32.22 40.606 31.43 40.146C33.7399 39.7259 35.4999 37.8259 35.5399 35.5659ZM9.61986 47.8459C5.11986 47.8459 1.45986 41.8759 1.45986 34.5459C1.45986 27.2059 5.11986 21.2358 9.61986 21.2358C10.3799 21.2358 11.1199 21.4058 11.8199 21.7259C10.6924 23.7931 9.79936 24.0435 8.31986 26.0259C4.81986 30.7659 4.47986 37.3659 7.47986 42.0859C8.68986 43.9959 10.4699 45.6459 12.6299 46.9059C11.6999 47.5159 10.6899 47.8459 9.61986 47.8459ZM30.2099 39.2159C29.2999 39.1559 28.3899 39.1259 27.4699 39.1059C27.1799 39.0759 26.9699 39.3159 26.9699 39.5959C26.9699 39.7159 27.0099 39.8359 27.0699 39.9159C27.1199 40.1459 27.3399 40.3059 27.5899 40.2859C29.6699 40.1159 31.5699 40.9759 32.4399 42.5059C33.0199 43.5359 32.9799 44.6659 32.3099 45.5959C29.6729 49.3101 17.7222 48.6336 13.5099 46.2459C11.3199 45.0459 9.51986 43.4259 8.31986 41.5459C5.53986 37.1758 5.86986 31.0359 9.11986 26.6158C10.7393 24.4452 11.8054 24.2805 13.1399 21.3258C14.6309 17.9425 14.1577 14.7163 13.2599 10.6758C12.7406 8.53458 12.2373 6.53498 12.3799 4.73578C12.5354 2.74068 13.4196 1.95728 14.9999 1.81578C16.9899 1.64578 19.0599 2.65578 20.1599 4.32578C20.7699 5.25578 21.1499 6.42578 21.3999 8.09578C22.1299 13.1058 21.9599 17.1258 20.8899 20.0558C20.8199 20.2258 20.8599 20.4258 20.9899 20.5558C21.1099 20.6958 21.2999 20.7558 21.48 20.7058C24.98 19.8258 27.9 20.2158 29.94 21.8558C31.29 22.9358 31.94 24.2958 32.19 25.2258C30.48 24.3658 27.92 24.0758 24.33 24.3458C24.05 24.3658 23.85 24.6058 23.87 24.8758C23.89 25.1558 24.13 25.3558 24.4 25.3358C33.2129 24.6948 34.426 27.4359 33.89 32.0758C33.01 31.3658 31.86 30.9658 30.64 30.9958C29.49 31.0058 27.92 31.0758 26.53 31.1758C26.25 31.1858 26.04 31.4258 26.06 31.7058C26.08 31.9758 26.33 32.1858 26.59 32.1658C27.97 32.0758 29.52 32.0058 30.68 31.9958C31.74 31.9758 32.82 32.3958 33.55 33.1258C34.2 33.7758 34.56 34.6458 34.5401 35.5458C34.5067 37.7573 32.3419 39.41 30.2099 39.2159Z" fill="black"/>
</svg>
