<svg width="21" height="18" viewBox="0 0 21 18" fill="none" xmlns="http://www.w3.org/2000/svg">
<path d="M6.65978 17.1966C14.2208 17.1966 18.3569 10.8882 18.3569 5.42712C18.3569 5.25059 18.3569 5.07154 18.3494 4.89501C19.1546 4.30804 19.8496 3.58133 20.4018 2.74893C19.6496 3.08288 18.8525 3.30298 18.0363 3.40208C18.896 2.88465 19.5399 2.07051 19.8483 1.11099C19.0406 1.59282 18.1565 1.93106 17.2349 2.1109C16.6153 1.44642 15.7953 1.00623 14.9021 0.858499C14.0088 0.710769 13.0921 0.863749 12.294 1.29374C11.4958 1.72374 10.8608 2.40675 10.4872 3.23698C10.1136 4.06721 10.0222 4.99833 10.2274 5.8861C8.5929 5.80357 6.99389 5.37602 5.53407 4.63116C4.07426 3.8863 2.78623 2.84078 1.75353 1.5624C1.22927 2.47415 1.06928 3.55264 1.30604 4.57886C1.5428 5.60508 2.15857 6.5021 3.0283 7.08776C2.37657 7.06546 1.73916 6.88924 1.16749 6.5733V6.63004C1.16861 7.58517 1.49721 8.51061 2.09774 9.24994C2.69827 9.98926 3.53389 10.4971 4.46336 10.6877C4.11056 10.7856 3.74612 10.8343 3.38018 10.8327C3.1222 10.8335 2.86474 10.8094 2.61131 10.7608C2.87401 11.583 3.38553 12.3019 4.07423 12.8167C4.76292 13.3316 5.5943 13.6166 6.45191 13.6319C4.995 14.7842 3.19535 15.4091 1.3428 15.4061C1.01637 15.4074 0.690165 15.3885 0.366058 15.3493C2.2463 16.5564 4.42992 17.1973 6.65978 17.1966V17.1966Z" fill="#232A34"/>
</svg>
